# xmcd
#
# Track frame offsets: 
#        150
#        11325
#        25438
#        37118
#        47150
#        60413
#        72390
#        88648
#        104790
#        119863
#        141013
#        152010
#        164448
#        176015
#        188240
#        199305
#
# Disc length: 2793 seconds
#
# Revision: 0
# Processed by: cddbd v1.5.2PL0 Copyright (c) Steve Scherf et al.
# Submitted via: ExactAudioCopy v1.0b3
#
DISCID=ec0ae710
DTITLE=Various Artist - Big Hits Märsche
DYEAR=2000
DGENRE=Marschmusik
TTITLE0=Ernst Mosch und seine Orig. Egerländer Musikanten - Gute Nachb
TTITLE0=arn
TTITLE1=Neue Böhmische Blasmusik - Mit Elan
TTITLE2=Orig. Tiroler Kaiserjägermusik - Tiroler Adler
TTITLE3=Geb. Musikkorps 8 der 1. Gebirgsdivision in Garmisch-Patenkirc
TTITLE3=hen - Der Jäger aus Kurpfalz
TTITLE4=Kurt Pascher und seine Orig. Böhmerwälder Musikanten - Bohemia
TTITLE5=Militärmusik Salzburg - 76-er Regimentsmarsch
TTITLE6=Veselka - Kmoch Marschfolge Teil 1
TTITLE7=Musikkorps der Bayerischen Polizei - Mit vollen Segeln (Konzer
TTITLE7=tmarsch)
TTITLE8=Militärmusik Kärnten - Die Regimentskinder
TTITLE9=Blasorchester Georg Ried - Florentiner 2000
TTITLE10=Blaskapelle Alpenland - Seyffertitz Marsch
TTITLE11=Polizeimusikkorps Baden-Württemberg - Semper Fidelis
TTITLE12=Hans Kriso und seine Egerländer Kapelle - In der Althütte
TTITLE13=Rundfunkblasorchester Leipzig - Radetzky Marsch
TTITLE14=Karl Hanspeter und seine Orig. Südtiroler Musikanten - Südtir
TTITLE14=oler Musikantenmarsch
TTITLE15=Zentralorchester des Innenministeriums der Tschechischen Repu
TTITLE15=blik - Manhattan Beach
EXTD=
EXTT0=
EXTT1=
EXTT2=
EXTT3=
EXTT4=
EXTT5=
EXTT6=
EXTT7=
EXTT8=
EXTT9=
EXTT10=
EXTT11=
EXTT12=
EXTT13=
EXTT14=
EXTT15=
PLAYORDER=
